<svg aria-hidden="true" style="position: absolute; width: 0; height: 0; overflow: hidden;" version="1.1" xmlns="http://www.w3.org/2000/svg" xmlns:xlink="http://www.w3.org/1999/xlink">
<defs>
<symbol id="icon-Find" viewBox="0 0 32 32">
<path fill="#fff" style="fill: var(--color1, #fff)" d="M16 20c0.733 0 1.361-0.261 1.884-0.784s0.783-1.149 0.783-1.883c0-0.733-0.261-1.361-0.783-1.884s-1.151-0.783-1.884-0.783c-0.733 0-1.361 0.261-1.883 0.783s-0.784 1.151-0.784 1.884c0 0.733 0.261 1.361 0.784 1.883s1.149 0.784 1.883 0.784zM23.467 26.667l-4.767-4.767c-0.378 0.244-0.794 0.433-1.249 0.567s-0.939 0.2-1.451 0.2c-1.467 0-2.722-0.522-3.767-1.567s-1.567-2.3-1.567-3.767c0-1.467 0.522-2.722 1.567-3.767s2.3-1.567 3.767-1.567c1.467 0 2.722 0.522 3.767 1.567s1.567 2.3 1.567 3.767c0 0.511-0.067 0.989-0.2 1.433s-0.322 0.855-0.567 1.233l3.433 3.433v-11.8l-5.267-6.3h-10.733v21.333h15.467zM8 29.333c-0.733 0-1.361-0.261-1.883-0.783s-0.784-1.151-0.784-1.884v-21.333c0-0.733 0.261-1.361 0.784-1.884s1.149-0.783 1.883-0.783h10.767c0.4 0 0.778 0.084 1.133 0.251s0.655 0.405 0.9 0.716l5.233 6.3c0.178 0.244 0.328 0.511 0.451 0.8s0.183 0.589 0.183 0.9v15.033c0 0.733-0.261 1.361-0.783 1.884s-1.151 0.783-1.884 0.783h-16z"></path>
</symbol>
<symbol id="icon-player" viewBox="0 0 32 32">
<path fill="#ff5000" style="fill: var(--color2, #ff5000)" d="M32 16c0 8.837-7.163 16-16 16s-16-7.163-16-16c0-8.837 7.163-16 16-16s16 7.163 16 16z"></path>
<path fill="#fff" style="fill: var(--color1, #fff)" d="M22.448 15.761l-9.075 6.209v-12.418l9.075 6.209z"></path>
</symbol>
<symbol id="icon-twitter" viewBox="0 0 32 32">
<path fill="none" stroke="#000" style="stroke: var(--color3, #000)" stroke-linejoin="miter" stroke-linecap="butt" stroke-miterlimit="4" stroke-width="1.3333" d="M31.333 16c0 8.468-6.865 15.333-15.333 15.333s-15.333-6.865-15.333-15.333c0-8.468 6.865-15.333 15.333-15.333s15.333 6.865 15.333 15.333z"></path>
<path d="M25.298 10.667c-0.684 0.311-1.422 0.516-2.187 0.613 0.782-0.471 1.387-1.218 1.671-2.116-0.738 0.444-1.556 0.756-2.418 0.933-0.702-0.764-1.689-1.209-2.809-1.209-2.089 0-3.796 1.707-3.796 3.813 0 0.302 0.036 0.596 0.098 0.871-3.164-0.16-5.982-1.68-7.858-3.982-0.329 0.56-0.516 1.218-0.516 1.911 0 1.324 0.667 2.498 1.698 3.164-0.631 0-1.218-0.178-1.733-0.445v0.027c0 1.849 1.316 3.396 3.058 3.742-0.559 0.153-1.147 0.174-1.716 0.062 0.241 0.758 0.714 1.421 1.352 1.896s1.408 0.739 2.204 0.753c-1.348 1.067-3.019 1.644-4.738 1.636-0.302 0-0.604-0.018-0.907-0.053 1.689 1.084 3.698 1.716 5.849 1.716 7.004 0 10.853-5.813 10.853-10.853 0-0.169 0-0.329-0.009-0.498 0.747-0.533 1.387-1.209 1.902-1.982z"></path>
</symbol>
<symbol id="icon-facebook" viewBox="0 0 32 32">
<path fill="none" stroke="#000" style="stroke: var(--color3, #000)" stroke-linejoin="miter" stroke-linecap="butt" stroke-miterlimit="4" stroke-width="1.3333" d="M31.333 16c0 8.468-6.865 15.333-15.333 15.333s-15.333-6.865-15.333-15.333c0-8.468 6.865-15.333 15.333-15.333s15.333 6.865 15.333 15.333z"></path>
<path d="M17.778 17.333h2.222l0.889-3.555h-3.111v-1.778c0-0.916 0-1.778 1.778-1.778h1.333v-2.987c-0.29-0.038-1.384-0.124-2.54-0.124-2.413 0-4.127 1.473-4.127 4.178v2.489h-2.667v3.555h2.667v7.556h3.555v-7.556z"></path>
</symbol>
<symbol id="icon-instagram" viewBox="0 0 32 32">
<path d="M18.667 16c0 0.527-0.156 1.043-0.449 1.481s-0.709 0.78-1.197 0.982c-0.487 0.202-1.023 0.255-1.541 0.152s-0.992-0.357-1.365-0.73c-0.373-0.373-0.627-0.848-0.73-1.366s-0.050-1.053 0.152-1.541c0.202-0.487 0.544-0.904 0.982-1.197s0.954-0.45 1.481-0.45c0.707 0.002 1.384 0.284 1.883 0.783s0.781 1.177 0.783 1.883zM24.333 12.333v7.333c0 1.238-0.492 2.425-1.367 3.3s-2.062 1.367-3.3 1.367h-7.333c-1.238 0-2.425-0.492-3.3-1.367s-1.367-2.062-1.367-3.3v-7.333c0-1.238 0.492-2.425 1.367-3.3s2.062-1.367 3.3-1.367h7.333c1.238 0 2.425 0.492 3.3 1.367s1.367 2.062 1.367 3.3zM20 16c0-0.791-0.235-1.564-0.674-2.222s-1.064-1.171-1.795-1.473c-0.731-0.303-1.535-0.382-2.311-0.228s-1.489 0.535-2.048 1.095c-0.559 0.56-0.94 1.272-1.095 2.048s-0.075 1.58 0.228 2.311c0.303 0.731 0.815 1.356 1.473 1.795s1.431 0.674 2.222 0.674c1.061 0 2.078-0.422 2.828-1.172s1.172-1.767 1.172-2.828zM21.333 11.667c0-0.198-0.059-0.391-0.169-0.556s-0.266-0.293-0.449-0.368c-0.183-0.076-0.384-0.096-0.578-0.057s-0.372 0.134-0.512 0.274c-0.14 0.14-0.235 0.318-0.274 0.512s-0.019 0.395 0.057 0.578c0.076 0.183 0.204 0.339 0.368 0.449s0.358 0.169 0.556 0.169c0.265 0 0.52-0.105 0.707-0.293s0.293-0.442 0.293-0.707z"></path>
<path fill="none" stroke="#000" style="stroke: var(--color3, #000)" stroke-linejoin="miter" stroke-linecap="butt" stroke-miterlimit="4" stroke-width="1.3333" d="M31.333 16c0 8.468-6.865 15.333-15.333 15.333s-15.333-6.865-15.333-15.333c0-8.468 6.865-15.333 15.333-15.333s15.333 6.865 15.333 15.333z"></path>
</symbol>
<symbol id="icon-ok" viewBox="0 0 32 32">
<path fill="#608bff" style="fill: var(--color4, #608bff)" d="M31.36 16.605c0 8.483-6.877 15.359-15.36 15.359s-15.36-6.876-15.36-15.359c0-8.483 6.877-15.359 15.36-15.359s15.36 6.876 15.36 15.359z"></path>
<path fill="#fff" style="fill: var(--color1, #fff)" d="M13.387 23.006l-6.080-6.080 1.52-1.52 4.56 4.56 9.787-9.787 1.52 1.52-11.307 11.307z"></path>
</symbol>
<symbol id="icon-findBook" viewBox="0 0 32 32">
<path fill="none" stroke="#fff" style="stroke: var(--color1, #fff)" stroke-linejoin="round" stroke-linecap="round" stroke-miterlimit="4" stroke-width="2.6667" d="M21.689 16l2.844 2.844 5.689-5.689M10.311 3.2h-8.533v21.333h9.956c2.418 0 4.267 1.849 4.267 4.267v-19.911c0-3.129-2.56-5.689-5.689-5.689z"></path>
<path fill="none" stroke="#fff" style="stroke: var(--color1, #fff)" stroke-linejoin="round" stroke-linecap="round" stroke-miterlimit="4" stroke-width="2.6667" d="M30.222 7.467v-4.267h-8.533c-3.129 0-5.689 2.56-5.689 5.689v19.911c0-2.418 1.849-4.267 4.267-4.267h9.956v-3.271"></path>
</symbol>
<symbol id="icon-map" viewBox="0 0 32 32">
<path fill="#fff" style="fill: var(--color1, #fff)" d="M31 8c0-0.4-0.2-0.7-0.5-0.9l-7-4c-0.2-0.1-0.3-0.1-0.5-0.1s-0.3 0-0.5 0.1l-6.5 3.7-6.5-3.7c-0.2-0.1-0.3-0.1-0.5-0.1s-0.3 0-0.5 0.1l-7 4c-0.3 0.2-0.5 0.5-0.5 0.9v20c0 0.6 0.4 1 1 1 0.2 0 0.3-0.1 0.5-0.1l6.5-3.7 6.5 3.7c0.2 0.1 0.3 0.1 0.5 0.1s0.3 0 0.5-0.1l6.5-3.7 6.5 3.7c0.1 0.1 0.3 0.1 0.5 0.1 0.6 0 1-0.4 1-1v-20zM3 8.6l5-2.9v17.7l-5 2.9v-17.7zM15 26.3l-5-2.9v-17.7l5 2.9v17.7zM22 23.4l-5 2.9v-17.7l5-2.9v17.7zM24 23.4v-17.7l5 2.9v17.7l-5-2.9z"></path>
</symbol>
<symbol id="icon-award" viewBox="0 0 32 32">
<path fill="#fff" style="fill: var(--color1, #fff)" d="M16 0c-0.769 0-1.534 0.258-2.192 0.731l-2.038 1.423-2.348 0.308h-0.038l-0.038 0.038c-0.77 0.174-1.475 0.563-2.034 1.121s-0.947 1.263-1.121 2.034l-0.037 0.038v0.038l-0.308 2.385-1.423 1.846-0.039 0.038v0.038c-0.86 1.375-0.898 3.15 0.039 4.462l1.461 2.038 0.385 2.117-3.962 6.037-1.269 1.886h5.884l1.423 3.307 0.885 2.116 1.269-1.924 3.884-5.846c1.044 0.428 2.222 0.468 3.232 0l3.884 5.846 1.269 1.924 0.885-2.116 1.423-3.307h5.884l-1.269-1.886-3.846-5.845 0.308-2.308 1.423-2.038 0.039-0.038v-0.038c0.86-1.375 0.898-3.111-0.039-4.423l-1.423-2.039-0.462-2.308h0.038c-0.005-0.030-0.033-0.049-0.038-0.078-0.222-1.61-1.495-2.917-3.115-3.115h-0.039l-2.308-0.308-2.038-1.423c-0.637-0.466-1.403-0.722-2.192-0.731zM16 2.5c0.283 0 0.562 0.086 0.769 0.231l2.462 1.769 0.308 0.039 2.693 0.384h0.037c0.554 0.062 0.938 0.447 1.001 1.001v0.076l0.501 2.731 0.037 0.27 0.193 0.23 1.577 2.192c0.294 0.409 0.332 1.102-0.038 1.692l-1.73 2.423-0.039 0.308-0.384 2.693v0.037c-0.020 0.192-0.086 0.377-0.192 0.539l-0.078 0.039v0.037c-0.183 0.22-0.445 0.358-0.73 0.385h-0.078l-2.807 0.501-0.308 0.037-0.231 0.193-2.192 1.577c-0.409 0.294-1.14 0.332-1.73-0.038l-2-1.538-0.231-0.192-0.346-0.039-2.693-0.384h-0.037c-0.174-0.015-0.342-0.072-0.489-0.166s-0.27-0.222-0.358-0.373c-0.082-0.142-0.134-0.299-0.154-0.462v-0.076l-0.5-2.807-0.039-0.308-0.192-0.231-1.577-2.192c-0.294-0.409-0.332-1.14 0.038-1.73l1.538-2 0.192-0.231 0.038-0.346 0.347-2.577c0.005-0.018 0.033-0.018 0.038-0.038 0.077-0.296 0.231-0.567 0.448-0.783s0.487-0.371 0.783-0.448c0.020-0.005 0.020-0.033 0.038-0.038l2.577-0.347 0.308-0.037 0.27-0.193 2.192-1.577c0.207-0.144 0.486-0.231 0.769-0.231zM24.5 21.231l1.886 2.885h-2.964l-0.308 0.769-0.846 1.961-2.615-4 0.576-0.422 2.425-0.423v0.038c0.028-0.005 0.047-0.033 0.076-0.038 0.648-0.093 1.26-0.359 1.77-0.769zM7.5 21.269c0.534 0.486 1.206 0.795 1.922 0.885h0.038l2.347 0.308 0.538 0.423-2.615 3.961-0.846-1.961-0.308-0.769h-2.961l1.884-2.847z"></path>
</symbol>
</defs>
</svg>
